<?xml version="1.0" encoding="utf-8"?>
<!-- Generator: Adobe Illustrator 24.0.2, SVG Export Plug-In . SVG Version: 6.00 Build 0)  -->
<svg version="1.1" id="Calque_1" xmlns="http://www.w3.org/2000/svg" xmlns:xlink="http://www.w3.org/1999/xlink" x="0px" y="0px"
	 viewBox="0 0 800 800" style="enable-background:new 0 0 800 800;" xml:space="preserve">
<style type="text/css">
	.st0{fill:url(#SVGID_1_);}
	.st1{fill:#041A00;}
	.st2{fill:#663300;}
	.st3{fill:#093300;}
	.st4{fill:#FFFF99;}
</style>
<radialGradient id="SVGID_1_" cx="459.2126" cy="714.3307" r="749.7723" gradientUnits="userSpaceOnUse">
	<stop  offset="0" style="stop-color:#FFDB00"/>
	<stop  offset="0" style="stop-color:#FFC40F"/>
	<stop  offset="0" style="stop-color:#FD5E53"/>
	<stop  offset="0.2576" style="stop-color:#CF413A"/>
	<stop  offset="0.6039" style="stop-color:#961E1B"/>
	<stop  offset="0.8617" style="stop-color:#730807"/>
	<stop  offset="1" style="stop-color:#660000"/>
</radialGradient>
<rect x="-322.5" y="-2" class="st0" width="1563.5" height="1432.8"/>
<path class="st1" d="M817,751c-26-51-63-79-63-79s14,68-13,74c0,0-52-37-41-61c0,0-25,76-43,72s-38-59-38-59s-20,62.3-30,59.2
	s-34-42.5-34-42.5s-6,44.9-18,42.6S491,672,491,672s3,87.7-22,85.4S432,686,432,686s2,72.8-13,71.4S392,709,392,709s-3,44.8-17,48.4
	c-14,3.6-54-47.4-45-79.4c0,0-17,81-32,84s-44-44-38-77c0,0-10,83-23,83s-24-48-24-48s-33,50-25,60c0,0-50-46-35-76c0,0-26,69-40,69
	s-40-68-32-81c0,0-47,51-41,78s-56-66-49-86s-26,148-26,148h371h481V751z"/>
<polygon class="st2" points="318.4,737.4 293.6,767 192.7,653.1 192.7,593 "/>
<polygon class="st2" points="32,737.4 56.8,767 157.7,653.1 157.7,593 "/>
<rect x="157.7" y="64" class="st2" width="35" height="703"/>
<rect x="157.7" y="64" class="st2" width="405.8" height="35"/>
<rect x="137.6" y="142.2" transform="matrix(0.7071 -0.7071 0.7071 0.7071 -38.1057 227.4254)" class="st2" width="235.7" height="35"/>
<path class="st3" d="M-14,736c26-51,63-79,63-79s-14,68,13,74c0,0,52-37,41-61c0,0,25,76,43,72s38-59,38-59s20,62.3,30,59.2
	s34-42.5,34-42.5s6,44.9,18,42.6s46-85.3,46-85.3s-3,87.7,22,85.4s37-71.4,37-71.4s-2,72.8,13,71.4s27-48.4,27-48.4s3,44.8,17,48.4
	c14,3.6,54-47.4,45-79.4c0,0,17,81,32,84s44-44,38-77c0,0,10,83,23,83s24-48,24-48s33,50,25,60c0,0,50-46,35-76c0,0,26,69,40,69
	s40-68,32-81c0,0,47,51,41,78s56-66,49-86s26,148,26,148H467H-14V736z"/>
<circle class="st4" cx="753" cy="53.9" r="89.3"/>
</svg>
