<?xml version="1.0" encoding="utf-8"?>
<!-- Generator: Adobe Illustrator 24.0.2, SVG Export Plug-In . SVG Version: 6.00 Build 0)  -->
<svg version="1.1" id="Calque_1" xmlns="http://www.w3.org/2000/svg" xmlns:xlink="http://www.w3.org/1999/xlink" x="0px" y="0px"
	 viewBox="0 0 800 800" style="enable-background:new 0 0 800 800;" xml:space="preserve">
<style type="text/css">
	.st0{fill:url(#SVGID_1_);}
	.st1{fill:#041A00;}
	.st2{fill:#2D1805;}
	.st3{fill:#FBDEBC;stroke:#000000;stroke-width:0.25;stroke-miterlimit:10.0002;}
	.st4{fill:#FFFF99;}
	.st5{fill:#FFFFFF;}
	.st6{fill:none;stroke:#000000;stroke-miterlimit:10;}
	.st7{fill:#C19A6B;stroke:#000000;stroke-width:0.5;stroke-miterlimit:9.9997;}
	.st8{fill:#FBDEBC;}
	.st9{fill:#EFEF00;stroke:#000000;stroke-width:0.25;stroke-miterlimit:10;}
	.st10{fill:none;}
	.st11{font-family:'BLOODSEEKERDEMO';}
	.st12{font-size:75px;}
	.st13{fill:#093300;}
</style>
<radialGradient id="SVGID_1_" cx="459.25" cy="714.4001" r="749.7873" gradientTransform="matrix(1 0 0 1 0 -6.103516e-05)" gradientUnits="userSpaceOnUse">
	<stop  offset="0" style="stop-color:#FFDB00"/>
	<stop  offset="0" style="stop-color:#FFC40F"/>
	<stop  offset="0" style="stop-color:#FD5E53"/>
	<stop  offset="0.2576" style="stop-color:#CF413A"/>
	<stop  offset="0.6039" style="stop-color:#961E1B"/>
	<stop  offset="0.8617" style="stop-color:#730807"/>
	<stop  offset="1" style="stop-color:#660000"/>
</radialGradient>
<rect x="-322.5" y="-2" class="st0" width="1563.5" height="1432.8"/>
<path class="st1" d="M817,751c-26-51-63-79-63-79s14,68-13,74c0,0-52-37-41-61c0,0-25,76-43,72s-38-59-38-59s-20,62.3-30,59.2
	s-34-42.5-34-42.5s-6,44.9-18,42.6S491,672,491,672s3,87.7-22,85.4S432,686,432,686s2,72.8-13,71.4S392,709,392,709s-3,44.8-17,48.4
	c-14,3.6-54-47.4-45-79.4c0,0-17,81-32,84s-44-44-38-77c0,0-10,83-23,83s-24-48-24-48s-33,50-25,60c0,0-50-46-35-76c0,0-26,69-40,69
	s-40-68-32-81c0,0-47,51-41,78s-56-66-49-86s-26,148-26,148h371h481V751z"/>
<polygon class="st2" points="428.1,464.3 449.2,487.3 463.4,514.2 467.8,572.8 451.3,572.8 451.3,560 447.8,530.4 443.9,514.2 
	430.3,487.8 "/>
<polygon class="st2" points="372.6,462.7 351.5,485.7 337.3,512.6 332.9,571.2 349.4,571.2 349.4,558.4 352.9,528.8 356.8,512.6 
	370.3,486.2 "/>
<ellipse transform="matrix(0.9993 -3.804991e-02 3.804991e-02 0.9993 -21.9602 13.4071)" class="st3" cx="341.2" cy="583.6" rx="10.1" ry="17.3"/>
<polygon class="st2" points="349.4,571.2 332.9,571.2 336.6,562.6 348.2,563.2 "/>
<ellipse transform="matrix(3.804991e-02 -0.9993 0.9993 3.804991e-02 -142.7599 1022.2004)" class="st3" cx="459.6" cy="585.2" rx="17.3" ry="10.1"/>
<polygon class="st2" points="451.3,572.8 467.8,572.8 464.1,564.2 452.5,564.8 "/>
<circle class="st4" cx="753" cy="53.9" r="89.3"/>
<g>
	<polygon class="st2" points="372.5,460.2 428,459.7 438,576.9 361.5,576.9 	"/>
	<polygon points="382.4,459.2 361.5,479.4 382.4,488 376,496.6 399.7,522.6 	"/>
	<polygon points="418.5,460.2 439.4,480.4 418.5,489 425,497.7 401.2,523.6 	"/>
	<polygon class="st5" points="382.4,459.2 418.5,460.2 401.2,523.6 	"/>
	<line class="st6" x1="401.2" y1="523.6" x2="401.2" y2="576.9"/>
</g>
<rect x="387.7" y="348.5" transform="matrix(0.9468 -0.3218 0.3218 0.9468 -92.1446 147.6009)" class="st7" width="25.3" height="8"/>
<rect x="387.6" y="340.6" transform="matrix(0.9468 -0.3218 0.3218 0.9468 -89.6067 147.1468)" class="st7" width="25.3" height="8"/>
<ellipse transform="matrix(0.999 -4.409570e-02 4.409570e-02 0.999 -17.4236 17.9577)" class="st8" cx="398.3" cy="403.9" rx="52.5" ry="65.5"/>
<polygon class="st9" points="344.7,399.1 343,377.1 334.8,350.2 349.8,354.3 351.2,333.7 363.5,344.9 377,330 382,337.8 
	396.4,323.9 412.5,333 434.2,329.5 436.5,345.1 457,349.5 454,364 463,383 450,379.7 450,393.4 437.4,384.5 417.8,374.4 
	419.5,381.9 404,373.8 395.8,381.3 391.3,373.8 379.5,384.4 371.8,378.7 361.8,384 353.3,391.9 "/>
<g>
	
		<ellipse transform="matrix(0.8226 -0.5686 0.5686 0.8226 -159.9669 310.3634)" class="st5" cx="417.4" cy="411.6" rx="16.4" ry="21.8"/>
	
		<ellipse transform="matrix(0.5686 -0.8226 0.8226 0.5686 -176.0835 491.1679)" class="st5" cx="380.3" cy="413.5" rx="21.8" ry="16.4"/>
	<circle cx="384.8" cy="413.5" r="1.3"/>
	<circle cx="414.7" cy="413.5" r="1.3"/>
</g>
<polygon points="361.5,576.9 361.5,604.1 439.4,604.1 438,576.9 "/>
<g id="Calque_2_1_">
</g>
<ellipse transform="matrix(0.7071 -0.7071 0.7071 0.7071 -418.0798 490.646)" class="st2" cx="383.2" cy="750" rx="22.4" ry="8.1"/>
<polygon points="361.5,602.9 374.5,672.5 381.8,739.1 398,735.2 393.8,661.2 396.5,602.5 "/>
<g>
	
		<ellipse transform="matrix(0.7071 -0.7071 0.7071 0.7071 -407.0455 515.1757)" class="st2" cx="418.3" cy="748.9" rx="8.1" ry="22.4"/>
	<polygon points="439.3,602.9 426.3,672.5 419,739.1 403,735.2 407,661.2 404.3,602.5 	"/>
</g>
<rect x="177.2" y="120.8" class="st10" width="469.6" height="149.1"/>
<text transform="matrix(1 0 0 1 177.2175 209.2813)" class="st11 st12">GG you win</text>
<path class="st13" d="M-14,736c26-51,63-79,63-79s-14,68,13,74c0,0,52-37,41-61c0,0,25,76,43,72s38-59,38-59s20,62.3,30,59.2
	s34-42.5,34-42.5s6,44.9,18,42.6s46-85.3,46-85.3s-3,87.7,22,85.4s37-71.4,37-71.4s-2,72.8,13,71.4s27-48.4,27-48.4s3,44.8,17,48.4
	c14,3.6,54-47.4,45-79.4c0,0,17,81,32,84s44-44,38-77c0,0,10,83,23,83s24-48,24-48s33,50,25,60c0,0,50-46,35-76c0,0,26,69,40,69
	s40-68,32-81c0,0,47,51,41,78s56-66,49-86s26,148,26,148H467H-14V736z"/>
<image style="overflow:visible;" width="552" height="580" xlink:href="../../../../../Download/danimpm-e19c18ac-fd4d-434e-ac9c-b25c1af4cb2b.png"  transform="matrix(1 0 0 1 -792.1304 -355.4354)">
</image>
<g>
	<path d="M397.6,462.2c0,0-2.6-0.9-18.8-14.6c0,0-0.6,0.6,0-3c0,0,36.3,2.1,37.4,3.3c1.1,1.2,1.1,1.2,1.1,1.2s-10.8,8.7-12.7,9.2
		C402.8,458.7,398.9,460.5,397.6,462.2z"/>
	<path class="st5" d="M381.9,446.1c0,0,0.2,2.4,1.8,4.8h4.2c0,0,0.6-4.8,1.4-4.6C390.1,446.4,381.9,446.1,381.9,446.1z"/>
	<path class="st5" d="M414.8,448.3c0,0-2.2,2.5-4.8,4.1l-4.2,0.3c0,0,1.8-4.7,2.4-5.2C408.5,447.3,414.8,448.3,414.8,448.3z"/>
	<path class="st5" d="M390.4,446.5c-1.2,0.6-1,3.5-1,4.8l7.2,0.4c1.4-0.5,0.5-5,0.5-5C396.1,445.6,390.4,446.5,390.4,446.5z"/>
	<path class="st5" d="M398.5,446.9c-0.4,1-0.5,3.8-0.5,5.1l7,0.7c0.1-0.7,1.8-5.2,1.8-5.2C405.8,446.4,398.5,446.9,398.5,446.9z"/>
</g>
</svg>
