<?xml version="1.0" encoding="utf-8"?>
<!-- Generator: Adobe Illustrator 24.0.2, SVG Export Plug-In . SVG Version: 6.00 Build 0)  -->
<svg version="1.1" xmlns="http://www.w3.org/2000/svg" xmlns:xlink="http://www.w3.org/1999/xlink" x="0px" y="0px"
	 viewBox="0 0 800 800" style="enable-background:new 0 0 800 800;" xml:space="preserve">
<style type="text/css">
	.st0{fill:url(#SVGID_1_);}
	.st1{fill:#041A00;}
	.st2{fill:#663300;}
	.st3{fill:#093300;}
	.st4{fill:#FFFF99;}
	.st5{fill:#C19A6B;stroke:#000000;stroke-width:0.5;stroke-miterlimit:10;}
	.st6{fill:#2D1805;}
	.st7{fill:#FFFFFF;}
	.st8{fill:#FFFFFF;stroke:#000000;stroke-miterlimit:10;}
	.st9{fill:none;stroke:#C19A6B;stroke-width:10;stroke-miterlimit:10;}
	.st10{fill:#C19A6B;stroke:#000000;stroke-width:0.5;stroke-miterlimit:9.9998;}
	.st11{fill:#FBDEBC;}
	.st12{fill:#FBDEBC;stroke:#000000;stroke-width:0.25;stroke-miterlimit:10;}
	.st13{fill:#EFEF00;stroke:#000000;stroke-width:0.25;stroke-miterlimit:10;}
	.st14{fill:#C12525;}
</style>
<g id="Calque_1">
	
		<radialGradient id="SVGID_1_" cx="459.25" cy="85.5993" r="749.7873" gradientTransform="matrix(1 0 0 -1 0 799.9993)" gradientUnits="userSpaceOnUse">
		<stop  offset="0" style="stop-color:#FFDB00"/>
		<stop  offset="0" style="stop-color:#FFC40F"/>
		<stop  offset="0" style="stop-color:#FD5E53"/>
		<stop  offset="0.2576" style="stop-color:#CF413A"/>
		<stop  offset="0.6039" style="stop-color:#961E1B"/>
		<stop  offset="0.8617" style="stop-color:#730807"/>
		<stop  offset="1" style="stop-color:#660000"/>
	</radialGradient>
	<rect x="-322.5" y="-2" class="st0" width="1563.5" height="1432.8"/>
	<path class="st1" d="M817,751c-26-51-63-79-63-79s14,68-13,74c0,0-52-37-41-61c0,0-25,76-43,72s-38-59-38-59s-20,62.3-30,59.2
		s-34-42.5-34-42.5s-6,44.9-18,42.6S491,672,491,672s3,87.7-22,85.4S432,686,432,686s2,72.8-13,71.4S392,709,392,709
		s-3,44.8-17,48.4c-14,3.6-54-47.4-45-79.4c0,0-17,81-32,84s-44-44-38-77c0,0-10,83-23,83s-24-48-24-48s-33,50-25,60
		c0,0-50-46-35-76c0,0-26,69-40,69s-40-68-32-81c0,0-47,51-41,78s-56-66-49-86s-26,148-26,148h371h481V751z"/>
	<polygon class="st2" points="318.4,737.4 293.6,767 192.7,653.1 192.7,593 	"/>
	<polygon class="st2" points="32,737.4 56.8,767 157.7,653.1 157.7,593 	"/>
	<rect x="157.7" y="64" class="st2" width="35" height="703"/>
	<rect x="157.7" y="64" class="st2" width="405.8" height="35"/>
	
		<rect x="137.6" y="142.2" transform="matrix(0.7071 -0.7071 0.7071 0.7071 -38.1208 227.4093)" class="st2" width="235.7" height="35"/>
	<path class="st3" d="M-14,736c26-51,63-79,63-79s-14,68,13,74c0,0,52-37,41-61c0,0,25,76,43,72s38-59,38-59s20,62.3,30,59.2
		s34-42.5,34-42.5s6,44.9,18,42.6s46-85.3,46-85.3s-3,87.7,22,85.4s37-71.4,37-71.4s-2,72.8,13,71.4s27-48.4,27-48.4s3,44.8,17,48.4
		c14,3.6,54-47.4,45-79.4c0,0,17,81,32,84s44-44,38-77c0,0,10,83,23,83s24-48,24-48s33,50,25,60c0,0,50-46,35-76c0,0,26,69,40,69
		s40-68,32-81c0,0,47,51,41,78s56-66,49-86s26,148,26,148H467H-14V736z"/>
	<circle class="st4" cx="753" cy="53.9" r="89.3"/>
	<rect x="522.3" y="62" class="st5" width="8" height="38.3"/>
	<rect x="538.4" y="62" class="st5" width="8" height="38.3"/>
	<polygon class="st6" points="507,319.8 453.2,356.6 492.1,323.4 479.9,309 434.5,351.2 430.9,366 437.4,377.6 451.8,377.6 
		504.7,343.3 	"/>
	<g>
		<polygon class="st6" points="506.5,311.6 562,311.1 572.1,428.3 495.5,428.3 		"/>
		<polygon points="516.4,310.6 495.6,330.8 516.4,339.4 510,348 533.7,374 		"/>
		<polygon points="552.5,311.6 573.4,331.8 552.5,340.4 559,349.1 535.2,375 		"/>
		<polygon class="st7" points="516.4,310.6 552.5,311.6 535.2,375 		"/>
		<line class="st8" x1="535.2" y1="375" x2="535.2" y2="428.3"/>
	</g>
	<rect x="530.4" y="60.3" class="st5" width="8" height="144.9"/>
	<path class="st9" d="M540.3,205.2c89.9,165.8-110.4,151.4-9.5,0"/>
	
		<rect x="521.8" y="199.9" transform="matrix(0.9468 -0.3218 0.3218 0.9468 -37.1842 182.8324)" class="st10" width="25.3" height="8"/>
	
		<rect x="521.7" y="192" transform="matrix(0.9468 -0.3218 0.3218 0.9468 -34.6519 182.3761)" class="st10" width="25.3" height="8"/>
	
		<rect x="521.7" y="184.2" transform="matrix(0.9468 -0.3218 0.3218 0.9468 -32.1414 181.9704)" class="st10" width="25.3" height="8"/>
	
		<rect x="521.8" y="176.3" transform="matrix(0.9468 -0.3218 0.3218 0.9468 -29.5868 181.578)" class="st10" width="25.3" height="8"/>
	
		<ellipse transform="matrix(0.999 -4.409450e-02 4.409450e-02 0.999 -10.7406 23.7247)" class="st11" cx="532.4" cy="255.3" rx="52.5" ry="65.5"/>
	
		<ellipse transform="matrix(0.9427 -0.3337 0.3337 0.9427 -75.087 183.1566)" class="st12" cx="495.7" cy="310.2" rx="17.3" ry="10.1"/>
	<polygon class="st13" points="478.7,250.5 477.1,228.5 468.8,201.6 483.8,205.7 485.2,185.1 497.5,196.3 511,181.4 516.1,189.2 
		530.4,175.3 546.5,184.4 568.2,180.9 570.5,196.5 591.1,200.9 588,215.4 597,234.4 584,231.1 584.1,244.8 571.4,235.9 551.8,225.8 
		553.6,233.3 538,225.2 529.8,232.7 525.3,225.2 513.6,235.8 505.8,230.1 495.8,235.4 487.3,243.3 	"/>
	<g>
		
			<ellipse transform="matrix(0.9998 -1.844591e-02 1.844591e-02 0.9998 -5.3735 9.8994)" cx="533.9" cy="296.2" rx="29.7" ry="5.8"/>
		<path class="st14" d="M545.1,295.2c-0.9-3.1-10.8-2.4-9.9,0.7c0.1,0.2,0.1,0.4,0.1,0.5c-0.1,0.1-0.3,0.2-0.5,0.3
			c-0.3-0.1-0.6-0.1-1-0.2c-0.1,0-0.2,0-0.3-0.1c-0.1-0.5-0.3-0.9-0.8-1.3c-1.2-1-3.6-1.5-5.9-1.3c-2.6,0.3-4.6,1.4-4.3,2.7
			c0.1,0.3,0.3,0.6,0.7,0.9c0,0.1,0,0.2,0,0.3c0.2,0.6,0.7,1.2,1.5,1.6c1.4,0.8,3.6,1.3,5.6,1.7c2,0.4,4.4,0.7,6.6,0.5
			c2-0.2,3.2-0.7,4.5-1.3c0.6-0.1,1.3-0.3,1.3-0.3c1-0.4,1.6-0.9,2-1.5C545.5,297.4,545.5,296.3,545.1,295.2z"/>
	</g>
	<g>
		
			<ellipse transform="matrix(0.8226 -0.5686 0.5686 0.8226 -51.6634 360.2567)" class="st7" cx="551.5" cy="262.9" rx="16.4" ry="21.8"/>
		
			<ellipse transform="matrix(0.5686 -0.8226 0.8226 0.5686 3.9663 537.2838)" class="st7" cx="514.3" cy="264.9" rx="21.8" ry="16.4"/>
		<circle cx="518.8" cy="264.9" r="1.3"/>
		<circle cx="548.7" cy="264.9" r="1.3"/>
	</g>
	<polygon class="st6" points="479.9,309 492.1,323.4 479.9,323.4 475.5,318.8 	"/>
</g>
<g id="Calque_2">
</g>
</svg>
